<svg xmlns="http://www.w3.org/2000/svg" viewBox="0 0 56.79 56.79">
  <defs>
    <style>
      .cls-1 {
        fill: #4b86bf;
      }
    </style>
  </defs>
  <title>Asset 20</title>
  <g id="Layer_2" data-name="Layer 2">
    <g id="Layer_1-2" data-name="Layer 1">
      <g>
        <path class="cls-1" d="M28.51,0A28.38,28.38,0,0,0,9.75,49.78v.06h.07A28.39,28.39,0,1,0,28.51,0Zm0,3a25.39,25.39,0,0,1,24,33.35l-9.1-9.1H12.79L4.13,35.9A25.4,25.4,0,0,1,28.5,3ZM19.86,37.85l1.53-4.1H35l1.53,4.1Zm17.65,2.5,2.61,7H16.32l2.61-7ZM33.74,30.24l.38,1H22.33l.38-1Zm3.2,0h5.23l1,1H37.32Zm-17.81,1H13l1-1H19.5Zm-8.6,2.5h7.67l-1.53,4.1H6.42Zm27.73,0h7.42l4.1,4.1h-10ZM6,40.35h9.73l-2.61,7h-1.6A25.56,25.56,0,0,1,6,40.35Zm9.28,9.78.11-.28H41.06l.17.45a25.33,25.33,0,0,1-26-.17Zm30-2.78h-2l-2.61-7H50.79A25.55,25.55,0,0,1,45.28,47.35Z"/>
        <path class="cls-1" d="M19.08,22.83h2.5c0-.54.19-.76.67-1.26a4,4,0,0,0,0-6c-.48-.5-.67-.72-.67-1.26s.19-.76.67-1.26a4,4,0,0,0,1.37-3h-2.5c0,.54-.19.76-.67,1.26a3.95,3.95,0,0,0,0,6c.48.5.67.72.67,1.26s-.19.76-.67,1.26A4,4,0,0,0,19.08,22.83Z"/>
        <path class="cls-1" d="M26.17,22.83h2.5c0-.54.19-.76.67-1.26a4,4,0,0,0,0-6c-.48-.5-.67-.72-.67-1.26s.19-.76.67-1.26a4,4,0,0,0,1.37-3H28.2c0,.54-.19.76-.67,1.26a3.95,3.95,0,0,0,0,6c.48.5.67.72.67,1.26s-.19.76-.67,1.26A4,4,0,0,0,26.17,22.83Z"/>
        <path class="cls-1" d="M33.17,22.83h2.5c0-.54.19-.76.67-1.26a4,4,0,0,0,0-6c-.48-.5-.67-.72-.67-1.26s.19-.76.67-1.26a4,4,0,0,0,1.37-3h-2.5c0,.54-.19.76-.67,1.26a3.95,3.95,0,0,0,0,6c.48.5.67.72.67,1.26s-.19.76-.67,1.26A4,4,0,0,0,33.17,22.83Z"/>
      </g>
    </g>
  </g>
</svg>
