<svg xmlns="http://www.w3.org/2000/svg" viewBox="0 0 56.79 56.79">
  <defs>
    <style>
      .cls-1 {
        fill: #bd3c8e;
      }
    </style>
  </defs>
  <title>Asset 18</title>
  <g id="Layer_2" data-name="Layer 2">
    <g id="Layer_1-2" data-name="Layer 1">
      <g>
        <path class="cls-1" d="M28.4,0A28.38,28.38,0,0,0,6.5,46.46l0,.13.17,0A28.39,28.39,0,1,0,28.4,0ZM47.5,15.56a6.76,6.76,0,1,1-6.76-6.76A6.77,6.77,0,0,1,47.5,15.56Zm-39,21.18L7.85,40.1l-1.1,1.56A25.22,25.22,0,0,1,3.13,30.94H4a4.82,4.82,0,0,1,4.54,5.81Zm1.2,8.87.9-4.29,1.69-2.4a4.82,4.82,0,1,1,6.71,6.71l-5.14,3.62A25.59,25.59,0,0,1,9.75,45.61Zm7,5.33,3.55-2.5a6,6,0,0,1,6.66,5.31A25.2,25.2,0,0,1,16.73,50.94ZM30,53.74A9,9,0,0,0,23,45.63a7.82,7.82,0,0,0-11.4-10.23,7.8,7.8,0,0,0-7.58-7.47H3A25.42,25.42,0,0,1,26.34,3.09l-.1.1,3.94,3.94L32.3,5,30.39,3.09A25.2,25.2,0,0,1,40,5.84a9.75,9.75,0,1,0,10.44,10A25.2,25.2,0,0,1,53.71,26.4L51.31,24l-2.12,2.12,3.94,3.94.64-.64A25.42,25.42,0,0,1,30,53.74Z"/>
        <rect class="cls-1" x="39.24" y="29" width="3" height="5.57"/>
        <rect class="cls-1" x="21.74" y="14.06" width="5.57" height="3"/>
        <polygon class="cls-1" points="30.93 24.56 24.27 24.56 24.27 27.56 27.31 27.56 22.62 32.24 24.74 34.37 29.43 29.68 29.43 32.66 32.43 32.66 32.43 24.56 30.93 24.56 30.93 24.56"/>
      </g>
    </g>
  </g>
</svg>
