<svg xmlns="http://www.w3.org/2000/svg" viewBox="0 0 44.64 36.48">
  <defs>
    <style>
      .cls-1 {
        fill: #bd3c8e;
      }
    </style>
  </defs>
  <title>Asset 11</title>
  <g id="Layer_2" data-name="Layer 2">
    <g id="Layer_1-2" data-name="Layer 1">
      <g>
        <path class="cls-1" d="M42.11,26.07a4.91,4.91,0,0,0,0-.56C41.64,17.4,34.4,11,25.6,11a16.64,16.64,0,0,0-14.83,8.54A11.12,11.12,0,0,0,.49,30.38a2.25,2.25,0,0,0,2.27,2.23H7.86a5.3,5.3,0,0,0,10.21,0H28.37a5.3,5.3,0,0,0,10.21,0h2.55a3.43,3.43,0,0,0,3.5-3.33A3.37,3.37,0,0,0,42.11,26.07Zm-16.93-12h.42a14.28,14.28,0,0,1,8.45,2.71l-2.78,2.78H23.9ZM22,14.49l-1.18,5H14.35A13.44,13.44,0,0,1,22,14.49Zm-9,19a2.36,2.36,0,1,1,1.8-.87A2.32,2.32,0,0,1,13,33.48Zm20.51,0a2.36,2.36,0,1,1,1.8-.87A2.32,2.32,0,0,1,33.48,33.48Zm7.66-3.87H38.56a5.3,5.3,0,0,0-10.16,0H18a5.3,5.3,0,0,0-10.16,0H3.53a8.22,8.22,0,0,1,8.22-7.08H32.52l3.73-3.73a11.68,11.68,0,0,1,2.83,7,3.46,3.46,0,0,1,0,.4v2.76h2c.31,0,.5.2.5.33S41.44,29.61,41.13,29.61Z"/>
        <g>
          <path class="cls-1" d="M1.81,0V3.33H0V7.45H1.81v3.33H16.56V0ZM13.56,7.77H4.81V7.45h0V3.33h0V3h8.75Z"/>
          <rect class="cls-1" x="9.49" y="3.81" width="3" height="3.16"/>
          <rect class="cls-1" x="5.89" y="3.81" width="3" height="3.16"/>
        </g>
      </g>
    </g>
  </g>
</svg>
