<svg xmlns="http://www.w3.org/2000/svg" viewBox="0 0 55.69 38.14">
  <defs>
    <style>
      .cls-1 {
        fill: #bd3c8e;
      }
    </style>
  </defs>
  <title>Asset 6</title>
  <g id="Layer_2" data-name="Layer 2">
    <g id="Layer_1-2" data-name="Layer 1">
      <g>
        <rect class="cls-1" x="40.4" y="8.26" width="5.47" height="2.5"/>
        <rect class="cls-1" x="40.4" y="12.6" width="5.47" height="2.5"/>
        <rect class="cls-1" x="38.8" y="17.14" width="7.07" height="2.5"/>
        <path class="cls-1" d="M34.53,31.3H8.3a2.25,2.25,0,0,0-2.36,1.87l-.7,2.56,0,.33a2.21,2.21,0,0,0,2.37,2.08h27.7a2.21,2.21,0,0,0,2.37-2.08l-.74-2.89A2.25,2.25,0,0,0,34.53,31.3ZM7.86,35.63l.5-1.83H34.47l.5,1.83Z"/>
        <path class="cls-1" d="M54,26.46a3.54,3.54,0,0,0-.27-3.6,3.49,3.49,0,0,0-3.19-1.48l-.15,0V6.67a4.89,4.89,0,0,0-4.89-4.89H36.41l-.18,0A6.41,6.41,0,0,0,31.77,0H6.44A6.44,6.44,0,0,0,0,6.44V18.21a6.44,6.44,0,0,0,6.44,6.44h6.88v.55H10.56v2.5H27.65V25.2H24.89v-.55H32a4.88,4.88,0,0,0,4.39,2.77h9.12a4.89,4.89,0,0,0,4.51-3,1.18,1.18,0,0,1,.78-.52,1,1,0,0,1,.9.44,1,1,0,0,1,0,1.08c-2,4.13,1.11,6.1,2.58,7l1.35-2.11C53.55,29,53.21,28.17,54,26.46ZM22.39,25.2H15.81v-.55h6.58Zm9.38-3H6.44A3.94,3.94,0,0,1,2.5,18.21V6.44A3.94,3.94,0,0,1,6.44,2.5H31.77a3.9,3.9,0,0,1,1.62.36,3.94,3.94,0,0,1,1.84,1.75,3.89,3.89,0,0,1,.47,1.83V18.21a4,4,0,0,1-3.94,3.94Zm16.14.37a2.36,2.36,0,0,1-.13.74,5.5,5.5,0,0,0-.38.71h0a2.38,2.38,0,0,1-1.88.93H36.41a2.37,2.37,0,0,1-1.85-.9,6.44,6.44,0,0,0,3.65-5.8V6.44a6.39,6.39,0,0,0-.38-2.15h7.7a2.39,2.39,0,0,1,2.39,2.39Z"/>
        <rect class="cls-1" x="6.07" y="7.62" width="9.43" height="2.5" transform="translate(-3.11 10.23) rotate(-45)"/>
        <rect class="cls-1" x="13.07" y="9.3" width="5.02" height="2.5" transform="translate(-2.9 14.11) rotate(-45)"/>
      </g>
    </g>
  </g>
</svg>
