<svg xmlns="http://www.w3.org/2000/svg" viewBox="0 0 56.79 56.79">
  <defs>
    <style>
      .cls-1 {
        fill: #4b86bf;
      }
    </style>
  </defs>
  <title>Asset 22</title>
  <g id="Layer_2" data-name="Layer 2">
    <g id="Layer_1-2" data-name="Layer 1">
      <g>
        <path class="cls-1" d="M28.51,0A28.4,28.4,0,1,0,56.79,28.51,28.43,28.43,0,0,0,28.51,0Zm0,3A25.43,25.43,0,0,1,53.36,23.75l-2.92-4v0h0l0,0,0,0H10.14l-7,11.59A25.35,25.35,0,0,1,28.5,3ZM7.75,43.16h9.74l4.67-7.87H10.05l-3.54,6a25.26,25.26,0,0,1-2.43-5.54l7.76-12.93H46l-9.88,25H12A25.61,25.61,0,0,1,7.75,43.16Zm2.9-3,1.11-1.87h5.13l-1.11,1.88Zm5.77,10.63H32.49v2.67a25.28,25.28,0,0,1-16.07-2.67Zm19.07,2v-2h2.7L49.14,23.09l4.63,6.26A25.44,25.44,0,0,1,35.49,52.78Z"/>
        <path class="cls-1" d="M28.62,24.41H13.2L7.42,34.16H22.84ZM12.68,31.16l2.22-3.75h8.45l-2.22,3.75Z"/>
        <path class="cls-1" d="M39.77,34.16l4.42-9.75H30l-5.78,9.75Zm-8-6.75h7.82l-1.7,3.75H29.5Z"/>
        <path class="cls-1" d="M38.65,35.84H23.57l-5.78,9.75H34.41Zm-6.21,6.75H23.06l2.22-3.75h8.79Z"/>
      </g>
    </g>
  </g>
</svg>
