<svg xmlns="http://www.w3.org/2000/svg" viewBox="0 0 56.79 56.79">
  <defs>
    <style>
      .cls-1 {
        fill: #bd3c8e;
      }
    </style>
  </defs>
  <title>Asset 26</title>
  <g id="Layer_2" data-name="Layer 2">
    <g id="Layer_1-2" data-name="Layer 1">
      <path class="cls-1" d="M28.4,0a28.4,28.4,0,1,0,28.4,28.4A28.43,28.43,0,0,0,28.4,0Zm25,24.11a10.27,10.27,0,0,0-10.48,2.76,13,13,0,0,0-9.64-7.47l6-7.16L27.46,10.72,20,4.45A25.38,25.38,0,0,1,53.42,24.11Zm-24.65-4-.93,7.27-5.62-4.71L15,21.78l4.71-5.62.93-7.27,5.62,4.71,7.27.93ZM22.37,37a10.89,10.89,0,0,1,.29-10l7.47,6.25,1.41-11a10.07,10.07,0,0,1,9.39,8L44.48,48a25.44,25.44,0,0,1-6,3.67ZM18,5.22l-1.24,9.68L9.13,24.06l10.92,1.39a13.88,13.88,0,0,0-1.64,8.93A14.16,14.16,0,0,0,4.17,36,25.39,25.39,0,0,1,18,5.22Zm9,48.53.8-1.91-2.76-1.17-1.14,2.71q-1.21-.21-2.37-.54l.68-1.61-2.76-1.17-.76,1.79q-1.11-.46-2.17-1l.72-1.7L14.51,48,14,49.28q-1-.71-2-1.51l.93-2.21-2.76-1.17-.49,1.15A25.57,25.57,0,0,1,8,43.46l1.19-2.81L6.38,39.48,6,40.37c-.25-.46-.48-.94-.7-1.42A11.11,11.11,0,0,1,20.12,39L35.27,52.84q-1.08.3-2.19.51l.33-.77-2.76-1.17-1,2.35c-.42,0-.83,0-1.26,0S27.5,53.78,27.05,53.76Zm20-8.16L44,30.29c2.41-3.41,5.69-4.41,9.77-2.94,0,.35,0,.7,0,1.05A25.3,25.3,0,0,1,47.06,45.6Z"/>
    </g>
  </g>
</svg>
