<svg xmlns="http://www.w3.org/2000/svg" viewBox="0 0 38.87 45.96">
  <defs>
    <style>
      .cls-1 {
        fill: #bd3c8e;
      }
    </style>
  </defs>
  <title>Asset 9</title>
  <g id="Layer_2" data-name="Layer 2">
    <g id="Layer_1-2" data-name="Layer 1">
      <g>
        <g>
          <path class="cls-1" d="M38.28,30.64,25.62,3.6a6.27,6.27,0,0,0-8.32-3L3.6,7a6.26,6.26,0,0,0-3,8.32l12.66,27a6.26,6.26,0,0,0,8.32,3L35.27,39A6.26,6.26,0,0,0,38.28,30.64ZM4.87,9.72l13.7-6.41A3.21,3.21,0,0,1,19.95,3a3.29,3.29,0,0,1,1.12.2,3.23,3.23,0,0,1,1.84,1.67l9.64,20.59-19.6,9.17L3.31,14A3.26,3.26,0,0,1,4.87,9.72ZM34,36.24l-13.7,6.42A3.26,3.26,0,0,1,16,41.09l-1.75-3.73,19.6-9.17,1.75,3.73A3.26,3.26,0,0,1,34,36.24Z"/>
          <path class="cls-1" d="M24.73,34.27A2,2,0,1,0,26.44,38h0a2,2,0,0,0-1.71-3.69Z"/>
        </g>
        <g>
          <path class="cls-1" d="M19.86,11.19l-3,1.41L16.08,11l-3.73,1.75.77,1.64-3,1.41,6.25,13.36,9.75-4.57Zm-5.77,6,4.32-2,3.71,7.92-4.32,2Z"/>
          <rect class="cls-1" x="17.3" y="20.29" width="3.16" height="3" transform="translate(-7.46 10.06) rotate(-25.08)"/>
          <rect class="cls-1" x="15.77" y="17.02" width="3.16" height="3" transform="translate(-6.22 9.1) rotate(-25.08)"/>
        </g>
      </g>
    </g>
  </g>
</svg>
