<svg xmlns="http://www.w3.org/2000/svg" viewBox="0 0 53.75 53.75">
  <defs>
    <style>
      .cls-1 {
        fill: #fff;
      }
    </style>
  </defs>
  <title>Asset 29</title>
  <g id="Layer_2" data-name="Layer 2">
    <g id="Layer_1-2" data-name="Layer 1">
      <g>
        <rect class="cls-1" x="25.38" width="3" height="7.87"/>
        <rect class="cls-1" x="25.38" y="45.88" width="3" height="7.87"/>
        <rect class="cls-1" x="39.12" y="9.17" width="7.92" height="3" transform="translate(5.07 33.59) rotate(-45)"/>
        <rect class="cls-1" x="6.72" y="41.6" width="7.87" height="3" transform="translate(-27.35 20.16) rotate(-45)"/>
        <rect class="cls-1" x="45.88" y="25.38" width="7.87" height="3"/>
        <rect class="cls-1" y="25.38" width="7.87" height="3"/>
        <rect class="cls-1" x="41.6" y="39.16" width="3" height="7.87" transform="translate(-17.85 43.1) rotate(-45)"/>
        <rect class="cls-1" x="9.15" y="6.72" width="3" height="7.87" transform="translate(-4.41 10.65) rotate(-45)"/>
        <path class="cls-1" d="M26.88,40.05A13.18,13.18,0,1,1,40.05,26.88,13.19,13.19,0,0,1,26.88,40.05Zm0-23.36A10.18,10.18,0,1,0,37.05,26.88,10.19,10.19,0,0,0,26.88,16.7Z"/>
      </g>
    </g>
  </g>
</svg>
