<svg xmlns="http://www.w3.org/2000/svg" viewBox="0 0 43.52 36.91">
  <defs>
    <style>
      .cls-1 {
        fill: #bd3c8e;
      }
    </style>
  </defs>
  <title>Asset 8</title>
  <g id="Layer_2" data-name="Layer 2">
    <g id="Layer_1-2" data-name="Layer 1">
      <g>
        <path class="cls-1" d="M40.52,21.09V18a6.33,6.33,0,0,0-5.86-6.3V10a6.49,6.49,0,0,0,1-3.46A6.54,6.54,0,0,0,25.67,1a6.46,6.46,0,0,0-6-.45,6.46,6.46,0,0,0-6,.45,6.55,6.55,0,0,0-9,9v1.9A6.33,6.33,0,0,0,0,18V28.53A6.33,6.33,0,0,0,5.56,34.8a1.6,1.6,0,0,0,0,.19v.27a1.65,1.65,0,0,0,1.64,1.64H9a1.65,1.65,0,0,0,1.64-1.64V35s0-.09,0-.14H30.53s0,.09,0,.14v.27a1.65,1.65,0,0,0,1.64,1.64H34a1.65,1.65,0,0,0,1.64-1.64V35a1.63,1.63,0,0,0,0-.31,6.33,6.33,0,0,0,4.9-6.16V23.72h3V21.09ZM23.74,2.8a6.54,6.54,0,0,0-.61,1,6.56,6.56,0,0,0-.83-1.33A4,4,0,0,1,23.74,2.8Zm-10,1.61a4.05,4.05,0,0,1,3.37-1.9h.06a4.11,4.11,0,0,1,4.06,4.06H25a4,4,0,0,1,.63-2.16,4.07,4.07,0,0,1,1.93-1.61A4,4,0,0,1,32.4,8.92l-.23.33v2.47H14.1V9.24l-.23-.33a4,4,0,0,1-.13-4.51ZM10.3,2.5a4,4,0,0,1,1.49.29A6.51,6.51,0,0,0,11.6,10v1.69H7.24V9.24L7,8.92a4,4,0,0,1-.77-2.35A4.07,4.07,0,0,1,10.3,2.5Zm27.21,26a3.33,3.33,0,0,1-3.33,3.33H6.33A3.33,3.33,0,0,1,3,28.53V18a3.37,3.37,0,0,1,3.33-3.33H34.19a3.28,3.28,0,0,1,.47,0A3.32,3.32,0,0,1,37.52,18Z"/>
        <rect class="cls-1" x="6.18" y="18.53" width="9.43" height="2.5" transform="translate(-10.79 13.49) rotate(-45)"/>
        <rect class="cls-1" x="13.18" y="20.2" width="5.02" height="2.5" transform="translate(-10.58 17.38) rotate(-45)"/>
      </g>
    </g>
  </g>
</svg>
