<svg xmlns="http://www.w3.org/2000/svg" viewBox="0 0 38.44 39.1">
  <defs>
    <style>
      .cls-1 {
        fill: #bd3c8e;
      }
    </style>
  </defs>
  <title>Asset 7</title>
  <g id="Layer_2" data-name="Layer 2">
    <g id="Layer_1-2" data-name="Layer 1">
      <g>
        <path class="cls-1" d="M19.23,16a3.6,3.6,0,0,0-3.61,3.58,3.58,3.58,0,0,0,3.58,3.61h0a3.59,3.59,0,0,0,0-7.19Zm0,4.69h0a1.08,1.08,0,0,1-.77-.32,1.07,1.07,0,0,1-.31-.77,1.09,1.09,0,1,1,1.09,1.09Z"/>
        <path class="cls-1" d="M21.92,16.32l.21.21a3.44,3.44,0,0,0,4.68.16L37.27,7.54a3.43,3.43,0,0,0,.17-5L35.9,1a3.48,3.48,0,0,0-2.54-1A3.44,3.44,0,0,0,30.9,1.17L21.76,11.64A3.44,3.44,0,0,0,21.92,16.32Zm2.1-2.7L33.16,3.14A.42.42,0,0,1,33.47,3h0a.42.42,0,0,1,.3.13l1.53,1.53a.43.43,0,0,1,0,.62L24.83,14.42a.43.43,0,0,1-.58,0L24,14.2A.43.43,0,0,1,24,13.61Z"/>
        <path class="cls-1" d="M26.8,22.42a3.44,3.44,0,0,0-4.68.16l-.21.21a3.44,3.44,0,0,0-.16,4.68L30.9,37.93a3.44,3.44,0,0,0,2.46,1.17h.12a3.44,3.44,0,0,0,2.42-1l1.53-1.53a3.43,3.43,0,0,0-.17-5Zm8.52,12L33.78,36a.41.41,0,0,1-.32.12.42.42,0,0,1-.31-.15L24,25.49a.43.43,0,0,1,0-.58l.21-.21a.43.43,0,0,1,.58,0l10.47,9.14a.43.43,0,0,1,0,.62Z"/>
        <path class="cls-1" d="M16.53,22.79l-.21-.21h0a3.44,3.44,0,0,0-4.68-.16L1.17,31.56a3.43,3.43,0,0,0-.17,5L2.54,38.1A3.44,3.44,0,0,0,5,39.1h.11a3.44,3.44,0,0,0,2.47-1.17l9.14-10.47A3.44,3.44,0,0,0,16.53,22.79Zm-2.1,2.7L5.28,36A.42.42,0,0,1,5,36.1.41.41,0,0,1,4.66,36L3.12,34.45a.43.43,0,0,1,0-.62l10.47-9.14a.43.43,0,0,1,.58,0l.21.21A.43.43,0,0,1,14.42,25.49Z"/>
        <path class="cls-1" d="M11.64,16.68a3.44,3.44,0,0,0,4.68-.16l.21-.21a3.44,3.44,0,0,0,.16-4.68L7.54,1.17A3.44,3.44,0,0,0,5.07,0,3.51,3.51,0,0,0,2.54,1L1,2.53a3.43,3.43,0,0,0,.17,5Zm-8.52-12L4.66,3.12A.42.42,0,0,1,5,3H5a.42.42,0,0,1,.31.15l9.14,10.47a.43.43,0,0,1,0,.58l-.21.21a.43.43,0,0,1-.58,0L3.15,5.28a.43.43,0,0,1,0-.62Z"/>
        <path class="cls-1" d="M18.64,4a1.85,1.85,0,0,1,1.86.42l2.12-2.12a4.78,4.78,0,0,0-6.19-.5l-.9-.9-1.39,5.2,5.2-1.39Z"/>
        <path class="cls-1" d="M18.49,32.48a1.85,1.85,0,0,1-1.86-.42l-2.12,2.12a4.78,4.78,0,0,0,6.19.5l.9.9L23,30.39l-5.2,1.39Z"/>
        <path class="cls-1" d="M7.08,23.33l-1.39-5.2L5,18.84A1.81,1.81,0,0,1,5.4,17L3.28,14.85A4.81,4.81,0,0,0,2.78,21l-.9.9Z"/>
        <path class="cls-1" d="M33,20.84,35.16,23a4.78,4.78,0,0,0,.5-6.19l.9-.9-5.2-1.39,1.39,5.2.71-.71A1.78,1.78,0,0,1,33,20.84Z"/>
      </g>
    </g>
  </g>
</svg>
