<svg xmlns="http://www.w3.org/2000/svg" viewBox="0 0 25.74 39.1">
  <defs>
    <style>
      .cls-1 {
        fill: #bd3c8e;
      }
    </style>
  </defs>
  <title>Asset 16</title>
  <g id="Layer_2" data-name="Layer 2">
    <g id="Layer_1-2" data-name="Layer 1">
      <g>
        <path class="cls-1" d="M25.54,6.21a6.21,6.21,0,0,0-1.87-4.4A6.34,6.34,0,0,0,19.24,0L6.21.1A6.27,6.27,0,0,0,0,6.4L.2,32.9A6.27,6.27,0,0,0,6.45,39.1h0l13-.1a6.27,6.27,0,0,0,6.21-6.3ZM3.94,4.07a3.23,3.23,0,0,1,2.29-1l13-.1h0a3.27,3.27,0,0,1,3.25,3.23l.15,20.26-19.54.15L3,6.38A3.23,3.23,0,0,1,3.94,4.07ZM21.8,35a3.23,3.23,0,0,1-2.29,1l-13,.1a3.12,3.12,0,0,1-2.3-.94,3.23,3.23,0,0,1-1-2.29l0-3.24,19.54-.15,0,3.24A3.23,3.23,0,0,1,21.8,35Z"/>
        <path class="cls-1" d="M13,31a1.86,1.86,0,1,0,0,3.72h0A1.86,1.86,0,0,0,13,31Z"/>
        <path class="cls-1" d="M7.17,15a8.09,8.09,0,0,0,.72,1.53A14.26,14.26,0,0,0,12,20.6a8.17,8.17,0,0,0,1.52.72l.31.11a5.61,5.61,0,0,0,2,.48,3.64,3.64,0,0,0,1.77-.48,2.58,2.58,0,0,0,1.21-1.1,4.1,4.1,0,0,0,.3-1.35.83.83,0,0,0,0-.33c-.11-.33-.45-.52-.85-.71l-.48-.27-.9-.51-.14-.1a1.51,1.51,0,0,0-.85-.36c-.5,0-.87.47-1.27,1a4.84,4.84,0,0,1-.44.5,2.69,2.69,0,0,1-.29-.16L13.7,18a7.7,7.7,0,0,1-3.16-3.17l-.07-.12a2.8,2.8,0,0,1-.16-.29,4.91,4.91,0,0,1,.5-.44c.49-.4,1-.78,1-1.27a1.51,1.51,0,0,0-.35-.85l-.09-.13c-.18-.3-.35-.62-.52-.93l-.27-.49c-.18-.37-.37-.72-.66-.81a.88.88,0,0,0-.37-.07,4.07,4.07,0,0,0-1.34.29A2.59,2.59,0,0,0,7.05,10.9a3.64,3.64,0,0,0-.48,1.76,5.6,5.6,0,0,0,.48,2Z"/>
      </g>
    </g>
  </g>
</svg>
