<svg xmlns="http://www.w3.org/2000/svg" viewBox="0 0 56.79 56.79">
  <defs>
    <style>
      .cls-1 {
        fill: #bd3c8e;
      }
    </style>
  </defs>
  <title>Asset 23</title>
  <g id="Layer_2" data-name="Layer 2">
    <g id="Layer_1-2" data-name="Layer 1">
      <path class="cls-1" d="M28.4,0a28.4,28.4,0,1,0,28.4,28.4A28.43,28.43,0,0,0,28.4,0Zm6.29,37.38-.59-.87-3.67-5.41c.15-.07.3-.16.45-.24l2.42.46,5.13,1,.87.64a3.25,3.25,0,1,1-4.61,4.44Zm-8.28-6.1a5.21,5.21,0,0,0,.66.21l1.24,1.83,2.93,4.32.16,1.07a3.24,3.24,0,0,1-.76,2.63,3.36,3.36,0,0,1-2.5,1.11A3.25,3.25,0,0,1,25,38.58l.2-1Zm-.52-5a2.27,2.27,0,0,1,.11-.67c0-.07,0-.15.07-.22s.06-.11.09-.16a2.1,2.1,0,0,1,1.08-1l.23-.09.12,0,.21-.05a2.16,2.16,0,0,1,1.24.12h0a2.29,2.29,0,0,1,.4.21h0a2.31,2.31,0,0,1,.71.78l.07.14a2.28,2.28,0,0,1,.14.38c0,.05,0,.1,0,.16a2.27,2.27,0,0,1,0,.91c0,.06,0,.12-.05.17a2.27,2.27,0,0,1-.14.37l-.06.11a2.31,2.31,0,0,1-.75.81h0a2.29,2.29,0,0,1-.36.19l-.07,0a2.2,2.2,0,0,1-1.25.11l-.27-.08h0l-.26-.11a2.31,2.31,0,0,1-.95-.85l-.11-.2c0-.06-.06-.13-.09-.19a2.77,2.77,0,0,1-.16-.82Zm13.77,3.18-6.53-1.26c0-.12.08-.25.12-.37l2.18-1.47,4.32-2.93,1.07-.16a3.25,3.25,0,1,1-.12,6.4ZM39.49,20l-.87.59L33.1,24.32c-.05-.12-.12-.24-.18-.36a5.31,5.31,0,0,0-2-2.19l-.39-.21,3.88-5.3.64-.87a3.24,3.24,0,0,1,2.4-1.32h.22A3.25,3.25,0,0,1,39.49,20Zm-7.7-6-.2,1-3.11,4.24-2.93-4.32-.16-1.07a3.25,3.25,0,1,1,6.4.12Zm-5.51,7.37a5.23,5.23,0,0,0-.63.31l-2.15-.41-5.13-1-.87-.64a3.25,3.25,0,0,1,1.92-5.87l.34,0A3.24,3.24,0,0,1,22.1,15.2l.59.87Zm-9.15,1.73,6.16,1.18a5.28,5.28,0,0,0-.25.79L21.38,26.2l-4.32,2.93L16,29.29a3.25,3.25,0,1,1,.12-6.4Zm.17,9.49.87-.59,5.19-3.51a5.31,5.31,0,0,0,.39.72l-.38,2-1,5.13-.64.87a3.25,3.25,0,1,1-4.44-4.61ZM21.91,53l1.45-9.8a6.23,6.23,0,0,0,4.71,2.29h.12a6.23,6.23,0,0,0,4.3-1.72l1.4,9.46a25.32,25.32,0,0,1-12-.24Zm14.88-.59-1.62-11a6.24,6.24,0,0,0,7.66-8.87,6.24,6.24,0,0,0,.2-12,6.25,6.25,0,0,0-8.39-8.66,6.25,6.25,0,0,0-5.94-4.7H28.6a6.25,6.25,0,0,0-6,4.51A6.25,6.25,0,0,0,13.94,20a6.22,6.22,0,0,0-.18,12,6.25,6.25,0,0,0,5.36,9.45h.42a6.24,6.24,0,0,0,1.05-.17L19,52a25.39,25.39,0,1,1,17.77.37Z"/>
    </g>
  </g>
</svg>
