<svg xmlns="http://www.w3.org/2000/svg" viewBox="0 0 41.72 46.53">
  <defs>
    <style>
      .cls-1 {
        fill: #bd3c8e;
      }
    </style>
  </defs>
  <title>Asset 3</title>
  <g id="Layer_2" data-name="Layer 2">
    <g id="Layer_1-2" data-name="Layer 1">
      <g>
        <path class="cls-1" d="M4.84,32.95a3.5,3.5,0,0,0-4.57,1.9,3.49,3.49,0,0,0,1.9,4.57l.47-1.16-.46,1.16a3.47,3.47,0,0,0,1.31.26,3.5,3.5,0,0,0,1.35-6.74Zm-.41,3.62a1,1,0,0,1-1.32.54,1,1,0,0,1-.54-.54,1,1,0,0,1,0-.76,1,1,0,0,1,.54-.55,1,1,0,0,1,1.32,1.3Z"/>
        <path class="cls-1" d="M10.9,39.79a3.51,3.51,0,0,0-4.57,1.9,3.49,3.49,0,0,0,1.91,4.57h0a3.46,3.46,0,0,0,1.31.26,3.5,3.5,0,0,0,1.35-6.74Zm-.41,3.62A1,1,0,0,1,9.21,44h0a1,1,0,0,1-.54-.54,1,1,0,0,1,0-.76A1,1,0,0,1,9.57,42a1,1,0,0,1,.38.07A1,1,0,0,1,10.5,43.41Z"/>
        <path class="cls-1" d="M32.72,0h0A13,13,0,0,0,21.22,6.87,10.73,10.73,0,0,0,8.56,11.49l-.11,0a3.47,3.47,0,1,0-2.73,6.37l.89.38L2.92,27.25A3.47,3.47,0,0,0,5,31.7a3.47,3.47,0,0,0,4.57-1.75l1.05-2.58a3.79,3.79,0,0,0,1,.39L9.08,33.83a3.46,3.46,0,0,0,2,4.44,3.74,3.74,0,0,0,1.42.28,3.35,3.35,0,0,0,3.15-2l.78-1.91a3.87,3.87,0,0,0,.51.25,3.69,3.69,0,0,0,2.63.07,3.26,3.26,0,0,0,1.94-1.82l3-7.25.69.3a3.46,3.46,0,0,0,3-6.25,10.75,10.75,0,0,0-4.24-11.7A10,10,0,0,1,32.7,3h0l9,0V0Zm-14,32a.29.29,0,0,1-.17.13.69.69,0,0,1-.49,0,.7.7,0,0,1-.37-.32.28.28,0,0,1,0-.21h0a1.5,1.5,0,0,0-2.78-1.13h0l-2,5c-.05.13-.34.23-.65.11s-.45-.41-.39-.53l3.72-9.12h0A1.5,1.5,0,0,0,12.8,24.7h0a.29.29,0,0,1-.17.13.7.7,0,0,1-.49,0,.56.56,0,0,1-.4-.49,1.5,1.5,0,0,0-2.88-.71L6.74,28.81c-.05.13-.34.23-.65.11s-.45-.41-.39-.53l3.67-9,12.37,5.3Zm7.15-9.82v0l.83.36a.47.47,0,0,1,.25.61.47.47,0,0,1-.61.25l-.74-.32L22.87,21.9l-1.05-.45-2.74-1.17L18,19.83l-2.77-1.19-1-.43-2.7-1.16-1-.45L7.75,15.43l-.85-.36a.47.47,0,0,1-.25-.61.46.46,0,0,1,.26-.25.49.49,0,0,1,.18,0,.45.45,0,0,1,.18,0l1,.42,0,0a1.49,1.49,0,0,0,.34.21l17,7.31Zm-.53-3.47-4.48-1.92-9.54-4.09a7.78,7.78,0,0,1,8.79-3c.24.08.47.16.7.26a7.81,7.81,0,0,1,4.54,8.77Z"/>
      </g>
    </g>
  </g>
</svg>
