<svg xmlns="http://www.w3.org/2000/svg" viewBox="0 0 56.79 56.79">
  <defs>
    <style>
      .cls-1 {
        fill: #4b86bf;
      }
    </style>
  </defs>
  <title>Asset 19</title>
  <g id="Layer_2" data-name="Layer 2">
    <g id="Layer_1-2" data-name="Layer 1">
      <g>
        <rect class="cls-1" x="34.84" y="18.58" width="3" height="4.75"/>
        <rect class="cls-1" x="24.19" y="15.4" width="4.75" height="3" transform="translate(-4.17 23.73) rotate(-45)"/>
        <rect class="cls-1" x="20.14" y="5.62" width="4.75" height="3"/>
        <rect class="cls-1" x="44.62" y="14.53" width="3" height="4.75" transform="translate(1.56 37.56) rotate(-45)"/>
        <path class="cls-1" d="M44.64,5.12a28.22,28.22,0,0,0-13.23-5,28.45,28.45,0,1,0,13.23,5ZM32.33,3.31a25.22,25.22,0,0,1,9.54,3.58c0,.08,0,.16,0,.24a5.54,5.54,0,1,1-9.55-3.82ZM3,29.9h8.06L5.32,39A25.2,25.2,0,0,1,3,29.9ZM7,42,14.67,29.9H26.38L14,49.3A25.59,25.59,0,0,1,7,42ZM26.23,53.69a25.2,25.2,0,0,1-9.67-2.84l13.38-21H41.42Zm3.52.06L46.89,26.9H3A25.43,25.43,0,0,1,28.4,3h.46A8.54,8.54,0,1,0,44.69,8.93,25.38,25.38,0,0,1,29.74,53.76Z"/>
      </g>
    </g>
  </g>
</svg>
