<svg xmlns="http://www.w3.org/2000/svg" viewBox="0 0 51.25 38.06">
  <defs>
    <style>
      .cls-1 {
        fill: #fff;
      }
    </style>
  </defs>
  <title>Asset 30</title>
  <g id="Layer_2" data-name="Layer 2">
    <g id="Layer_1-2" data-name="Layer 1">
      <g>
        <path class="cls-1" d="M48.31,23.23A12.47,12.47,0,0,1,40.1,2.56l2-2.22L39.11.07C38.64,0,38.17,0,37.69,0A15.5,15.5,0,0,0,22.2,15.49s0,.1,0,.15A11,11,0,0,0,5.44,23.79,7.25,7.25,0,0,0,7.26,38.06H29.13A8.67,8.67,0,0,0,37.64,31h0a15.49,15.49,0,0,0,11.61-5.26l2-2.22ZM34.65,30.67A5.7,5.7,0,0,1,29,35.06H7.26A4.25,4.25,0,0,1,7,26.57l1.4-.09V25A8.05,8.05,0,0,1,23,20.41a8,8,0,0,1,1.26,2.8c0,.06,0,.11,0,.17l.41,1.95.72-.38,1-.55a5.58,5.58,0,0,1,1.89-.6,5.63,5.63,0,0,1,6.09,3.75,5.53,5.53,0,0,1,.17,3.13Zm3-2.7h0a8.65,8.65,0,0,0-10.91-6.9,11,11,0,0,0-1-2A12.47,12.47,0,0,1,36,3.11,15.47,15.47,0,0,0,45,25.63,12.45,12.45,0,0,1,37.69,28Z"/>
        <path class="cls-1" d="M46.47,16.74h0a3.94,3.94,0,1,0-3.94-4,3.93,3.93,0,0,0,3.93,4Zm0-5.38a1.44,1.44,0,0,1,0,2.88h0a1.42,1.42,0,0,1-1-.43,1.41,1.41,0,0,1-.41-1A1.45,1.45,0,0,1,46.48,11.36Z"/>
      </g>
    </g>
  </g>
</svg>
