<svg xmlns="http://www.w3.org/2000/svg" viewBox="0 0 43.97 32.74">
  <defs>
    <style>
      .cls-1 {
        fill: #bd3c8e;
      }
    </style>
  </defs>
  <title>Asset 5</title>
  <g id="Layer_2" data-name="Layer 2">
    <g id="Layer_1-2" data-name="Layer 1">
      <g>
        <path class="cls-1" d="M37.53,0H6.44A6.44,6.44,0,0,0,0,6.44V21.79a6.44,6.44,0,0,0,6.44,6.44H16.2v2H13.44v2.5H30.53v-2.5H27.77v-2h9.76A6.44,6.44,0,0,0,44,21.79V6.44A6.44,6.44,0,0,0,37.53,0ZM18.7,30.23v-1.4h6.58v1.4ZM20,4.4a2.61,2.61,0,0,1,2.53,2L23,8l-15.75,4-.43-1.67A2.62,2.62,0,0,1,8.69,7.22l10.7-2.73A2.62,2.62,0,0,1,20,4.4ZM2.5,6.44A3.94,3.94,0,0,1,6.44,2.5H15L7.95,4.31a5.62,5.62,0,0,0-4,6.82l.54,2.12A5.32,5.32,0,0,0,4,13.7a1.08,1.08,0,0,0-.71-.22l-.76.06ZM6.44,25.73A3.94,3.94,0,0,1,2.5,21.79V16.68h.2a4.77,4.77,0,0,0,.12,1.48l.7,2.76a4.8,4.8,0,0,0,4.35,3.59l.32,1.23Zm3.75-5.91-1.52.39a1.82,1.82,0,0,0-1.25,1.13,1.8,1.8,0,0,1-1-1.18l-.7-2.76a1.78,1.78,0,0,1,0-.88A1.82,1.82,0,0,1,5.93,16,1.8,1.8,0,0,1,7,15.2l1.23-.31,13.12-3.35,2-.52,1.24-.32a1.79,1.79,0,0,1,1.37.2,1.82,1.82,0,0,1,.42.35,1.78,1.78,0,0,1,.42.75v.06l.69,2.7a1.8,1.8,0,0,1-.2,1.37l-.1.13a1.82,1.82,0,0,0-1.64-.39l-1.52.39a1.83,1.83,0,0,0-1.36,1.6l-.89.23-6.56,1.68-3.16.81A1.83,1.83,0,0,0,10.19,19.81Zm3.24,5.32L13,23.44l2-.51a5.72,5.72,0,0,0,1.44,2.8h-3A1.8,1.8,0,0,0,13.43,25.13Zm23.31-.56H20.65a2.74,2.74,0,0,1-2.71-2.4l5.46-1.39.43,1.69A1.83,1.83,0,0,0,26,23.8l1.52-.39a1.83,1.83,0,0,0,1.32-2.22l-.5-1.94A4.76,4.76,0,0,0,30.48,14l-.32-1.25a5.56,5.56,0,0,1,2.69,3.67l.41,1.95L35,17.45A3.74,3.74,0,0,1,36.79,17a3.78,3.78,0,1,1,0,7.57Zm4.73-8.68a6.75,6.75,0,0,0-6.2-1.71A8.6,8.6,0,0,0,29.9,9.43a1.09,1.09,0,0,0,.24-1.23l-.39-.86A1.1,1.1,0,0,0,28.3,6.8l-1.43.65a1.06,1.06,0,0,0-.44.4c-.14,0-.28-.09-.42-.12l-.54-2.12a5.58,5.58,0,0,0-2.1-3.12H37.53a3.93,3.93,0,0,1,3.71,2.67,4.44,4.44,0,0,0-7.37,3.37A4.47,4.47,0,0,0,38.33,13h0a4.45,4.45,0,0,0,3.12-1.28ZM40.33,8.55a2,2,0,0,1-2,2h0a2,2,0,0,1-2-2,2,2,0,1,1,4,0Z"/>
        <rect class="cls-1" x="7.99" y="16.29" width="3.39" height="3.13" rx="1.09" ry="1.09" transform="translate(-4.12 2.95) rotate(-14.33)"/>
        <rect class="cls-1" x="22.14" y="12.68" width="3.39" height="3.13" rx="1.09" ry="1.09" transform="translate(-2.78 6.34) rotate(-14.33)"/>
        <rect class="cls-1" x="13.55" y="14.45" width="6.6" height="3" transform="translate(-3.52 4.85) rotate(-14.85)"/>
      </g>
    </g>
  </g>
</svg>
