<svg xmlns="http://www.w3.org/2000/svg" viewBox="0 0 56.79 56.79">
  <defs>
    <style>
      .cls-1 {
        fill: #4b86bf;
      }
    </style>
  </defs>
  <title>Asset 25</title>
  <g id="Layer_2" data-name="Layer 2">
    <g id="Layer_1-2" data-name="Layer 1">
      <g>
        <path class="cls-1" d="M28.51,0A28.4,28.4,0,1,0,56.79,28.51,28.43,28.43,0,0,0,28.51,0Zm-13,36.25a2.6,2.6,0,0,1-2.17-4L26.23,12.92a2.6,2.6,0,0,1,4.33,0L43.42,32.2a2.6,2.6,0,0,1-2.17,4Zm12.06,3H29.2V53.53H27.59ZM32.2,53.51V39.25h9.06a5.6,5.6,0,0,0,4.66-8.71L33.06,11.26A5.59,5.59,0,0,0,28.4,8.76h0a5.59,5.59,0,0,0-4.66,2.49L10.87,30.53a5.6,5.6,0,0,0,4.66,8.71h9.06V53.5a25.39,25.39,0,1,1,7.61,0Z"/>
        <circle class="cls-1" cx="28.4" cy="31.83" r="1.66"/>
        <path class="cls-1" d="M28.4,17.09a2.49,2.49,0,0,0-2.49,2.49c0,1.38,1.12,9,2.49,9s2.49-7.64,2.49-9A2.49,2.49,0,0,0,28.4,17.09Z"/>
      </g>
    </g>
  </g>
</svg>
