<svg xmlns="http://www.w3.org/2000/svg" viewBox="0 0 30.24 36.79">
  <defs>
    <style>
      .cls-1 {
        fill: #bd3c8e;
      }
    </style>
  </defs>
  <title>Asset 15</title>
  <g id="Layer_2" data-name="Layer 2">
    <g id="Layer_1-2" data-name="Layer 1">
      <g>
        <path class="cls-1" d="M6.35,27.91l-1-2.83C1.91,26.27,0,28.1,0,30.21a3.55,3.55,0,0,0,.36,1.54l2.71-1.29A.59.59,0,0,1,3,30.21C3,29.75,3.89,28.76,6.35,27.91Z"/>
        <path class="cls-1" d="M3.19,34.41a21.41,21.41,0,0,0,7.22,2.08l.39-3a18.75,18.75,0,0,1-6.18-1.74Z"/>
        <path class="cls-1" d="M29.1,27.54l-2.2,2a1.11,1.11,0,0,1,.34.64c0,.52-1.13,1.68-4.16,2.56l.84,2.88c4.08-1.19,6.33-3.12,6.33-5.45A3.94,3.94,0,0,0,29.1,27.54Z"/>
        <path class="cls-1" d="M15.13,33.79c-.49,0-1,0-1.48,0l-.12,3q.79,0,1.59,0h0a35.47,35.47,0,0,0,5.68-.44l-.48-3A32.46,32.46,0,0,1,15.13,33.79Z"/>
        <path class="cls-1" d="M15.12,29.93c1.11,0,2.43-1.23,3.74-3.08a21.64,21.64,0,0,1,6,1.46l1.2-2.75a22.65,22.65,0,0,0-5.52-1.5c2.63-4.77,4.85-11.11,4.85-13.74a10.31,10.31,0,0,0-20.62,0C4.81,13,7,19.27,9.56,24c-.27.07-.61.15-1.09.24L9,27.2c.93-.18,1.54-.35,2.18-.48C12.57,28.64,13.94,29.93,15.12,29.93ZM15.12,3a7.32,7.32,0,0,1,7.31,7.31c0,4.22-5.33,14.89-7.33,16.51-2-1.54-7.29-12.18-7.29-16.51A7.32,7.32,0,0,1,15.12,3Z"/>
        <path class="cls-1" d="M19.91,9.76a4.79,4.79,0,1,0-4.79,4.79A4.8,4.8,0,0,0,19.91,9.76Zm-6.58,0a1.79,1.79,0,1,1,1.79,1.79A1.79,1.79,0,0,1,13.33,9.76Z"/>
      </g>
    </g>
  </g>
</svg>
