<svg xmlns="http://www.w3.org/2000/svg" viewBox="0 0 48.1 38">
  <defs>
    <style>
      .cls-1 {
        fill: #bd3c8e;
      }
    </style>
  </defs>
  <title>Asset 4</title>
  <g id="Layer_2" data-name="Layer 2">
    <g id="Layer_1-2" data-name="Layer 1">
      <g>
        <path class="cls-1" d="M16.5,34.45A11.25,11.25,0,1,1,27.75,23.2,11.27,11.27,0,0,1,16.5,34.45Zm0-19.51a8.25,8.25,0,1,0,8.25,8.25A8.26,8.26,0,0,0,16.5,14.95Z"/>
        <path class="cls-1" d="M16.5,30.63v-3a4,4,0,0,0,4-4h3A7,7,0,0,1,16.5,30.63Z"/>
        <path class="cls-1" d="M41.88,25.56a6.22,6.22,0,0,0-1.26.13,7.85,7.85,0,0,0-7.1-4.58l-.51,0V4.67A4.67,4.67,0,0,0,28.33,0H4.67A4.67,4.67,0,0,0,0,4.67V33.33A4.67,4.67,0,0,0,4.67,38H41.88a6.22,6.22,0,1,0,0-12.44ZM4.67,3H28.33A1.67,1.67,0,0,1,30,4.67V7.58H3V4.67A1.67,1.67,0,0,1,4.67,3ZM30,25.66v7.68A1.67,1.67,0,0,1,28.33,35H4.67A1.67,1.67,0,0,1,3,33.33V10.58H30V25.66ZM41.85,35H32.68A4.62,4.62,0,0,0,33,33.33V24.16a4.7,4.7,0,0,1,.51-.05,4.82,4.82,0,0,1,4.7,3.81l.41,1.95,1.76-.93a3.18,3.18,0,0,1,1.5-.37,3.22,3.22,0,1,1,0,6.44Z"/>
        <circle class="cls-1" cx="22.17" cy="5.42" r="1.5"/>
        <circle class="cls-1" cx="37.98" cy="15.73" r="1.5"/>
        <circle class="cls-1" cx="46.06" cy="21.11" r="1.5"/>
        <circle class="cls-1" cx="26.96" cy="5.42" r="1.5"/>
      </g>
    </g>
  </g>
</svg>
