<svg xmlns="http://www.w3.org/2000/svg" viewBox="0 0 56.79 56.79">
  <defs>
    <style>
      .cls-1 {
        fill: #4b86bf;
      }
    </style>
  </defs>
  <title>Asset 21</title>
  <g id="Layer_2" data-name="Layer 2">
    <g id="Layer_1-2" data-name="Layer 1">
      <g>
        <path class="cls-1" d="M28.51,0A28.4,28.4,0,1,0,56.79,28.51,28.43,28.43,0,0,0,28.51,0ZM43.65,11.54a.88.88,0,1,1-.87-.87A.88.88,0,0,1,43.65,11.54ZM20.33,5.95a.88.88,0,1,1-.87-.87A.88.88,0,0,1,20.33,5.95Zm-4.7.51a3.86,3.86,0,1,0,7-2.78,25.29,25.29,0,0,1,20.51,4c-.11,0-.21,0-.32,0a3.87,3.87,0,1,0,3.88,3.87,3.84,3.84,0,0,0-.12-.91,25.31,25.31,0,0,1,7.24,16.72,3.84,3.84,0,0,0-2.29-.77,3.88,3.88,0,0,0,0,7.75,3.83,3.83,0,0,0,1.71-.41,25.22,25.22,0,0,1-2.59,6.81l-6.71-9.56c.31-.15,0,0,.31-.15l.6-.33L45.51,29a14.27,14.27,0,0,0-3.43-6.43,14,14,0,0,0-4.05-3,10.21,10.21,0,0,0-6.48-2.09,9.62,9.62,0,0,0-2.82.54,7.3,7.3,0,0,0-7.44-1.22,12.6,12.6,0,0,0-5.08.35,12.44,12.44,0,0,0-3.28,1.46,10.47,10.47,0,0,0-4.19-.89h0A10.41,10.41,0,0,0,5,18.44,25.55,25.55,0,0,1,15.63,6.45Zm36.72,24a.88.88,0,1,1-.87-.87A.88.88,0,0,1,52.35,30.46ZM14,33a12.27,12.27,0,0,0,8.79,2.15A15.53,15.53,0,0,0,29,34.32l2.18,5L16.54,40.51Zm17.73.1A15,15,0,0,0,33.35,32a16.35,16.35,0,0,0,7.56.21l4.26,6.07-10.82.86Zm10.38-4.39-.33.13a11.25,11.25,0,0,1-2.79.64,14.4,14.4,0,0,1-5.57-.57l-.8-.24-.62.55A12,12,0,0,1,29.17,31a12.42,12.42,0,0,1-6.3,1.08l-.18,0-.18,0a9.29,9.29,0,0,1-7.64-2.28l-.65-.59-.83.28a21.38,21.38,0,0,1-4,.93,29.88,29.88,0,0,1-6.29-.26C3,29.57,3,28.94,3,28.3a25.32,25.32,0,0,1,.93-6.69,19.63,19.63,0,0,1,4.81-.84,7.47,7.47,0,0,1,3.59.94l.61.34.24.13.18-.13.6-.44A9.47,9.47,0,0,1,17,20.09a9.59,9.59,0,0,1,4.21-.22l.47.08.43-.21a4.42,4.42,0,0,1,2.78-.32,4.37,4.37,0,0,1,2.34,1.39l.75.86,1-.49a6.72,6.72,0,0,1,2.64-.66A7.13,7.13,0,0,1,36.28,22l0,0,.27.17a11.18,11.18,0,0,1,1.74,1,11,11,0,0,1,1.56,1.38,11.14,11.14,0,0,1,2.37,3.94ZM9.75,33.44c.4-.05.79-.13,1.18-.2l2.52,7.51-6.92.55a25.23,25.23,0,0,1-3-7.86A24.39,24.39,0,0,0,9.75,33.44ZM8.5,44.15l5.94-.47L16.91,51A25.55,25.55,0,0,1,8.5,44.15Zm12.09,8.41-3.06-9.12,14.93-1.18,4.38,10.09a25.36,25.36,0,0,1-16.25.21Zm19-1.38-4-9.17,11.56-.92,1.66,2.36A25.56,25.56,0,0,1,39.6,51.18Z"/>
        <path class="cls-1" d="M31.11,15.64a3.87,3.87,0,1,0-3.87-3.87A3.88,3.88,0,0,0,31.11,15.64Zm0-4.75a.88.88,0,1,1-.87.88A.88.88,0,0,1,31.11,10.89Z"/>
      </g>
    </g>
  </g>
</svg>
