<svg xmlns="http://www.w3.org/2000/svg" viewBox="0 0 56.79 56.79">
  <defs>
    <style>
      .cls-1 {
        fill: #bd3c8e;
      }
    </style>
  </defs>
  <title>Asset 24</title>
  <g id="Layer_2" data-name="Layer 2">
    <g id="Layer_1-2" data-name="Layer 1">
      <g>
        <path class="cls-1" d="M28.4,0a28.4,28.4,0,1,0,28.4,28.4A28.43,28.43,0,0,0,28.4,0Zm0,53.79a25.4,25.4,0,1,1,25.4-25.4A25.42,25.42,0,0,1,28.4,53.79Z"/>
        <path class="cls-1" d="M14.45,18.17a4,4,0,0,0-2.69,1c-.37.29-.46.37-.81.37s-.45-.08-.81-.37a4,4,0,0,0-2.69-1v3c.35,0,.45.08.81.37a4,4,0,0,0,5.37,0c.37-.29.46-.37.81-.37s.45.08.81.37a4,4,0,0,0,2.69,1v-3c-.35,0-.45-.08-.81-.37A4,4,0,0,0,14.45,18.17Z"/>
        <path class="cls-1" d="M14.45,25.58a4,4,0,0,0-2.69,1c-.37.29-.46.37-.81.37s-.45-.08-.81-.37a4,4,0,0,0-2.69-1v3c.35,0,.45.08.81.37a4,4,0,0,0,5.37,0c.37-.29.46-.37.81-.37s.45.08.81.37A4,4,0,0,0,18,30V27c-.35,0-.45-.08-.81-.37A4,4,0,0,0,14.45,25.58Z"/>
        <path class="cls-1" d="M14.45,33a4,4,0,0,0-2.69,1c-.37.29-.46.37-.81.37s-.45-.08-.81-.37a4,4,0,0,0-2.69-1v3c.35,0,.45.08.81.37a4,4,0,0,0,5.37,0c.37-.29.46-.37.81-.37s.45.08.81.37a4,4,0,0,0,2.69,1v-3c-.35,0-.45-.08-.81-.37A4,4,0,0,0,14.45,33Z"/>
        <path class="cls-1" d="M48.47,19.2a4,4,0,0,0-5.37,0c-.37.29-.46.37-.81.37s-.45-.08-.81-.37a4,4,0,0,0-2.69-1v3c.35,0,.45.08.81.37a4,4,0,0,0,5.37,0c.37-.29.46-.37.81-.37s.45.08.81.37a4,4,0,0,0,2.69,1v-3C48.94,19.57,48.84,19.49,48.47,19.2Z"/>
        <path class="cls-1" d="M45.79,25.58a4,4,0,0,0-2.69,1c-.37.29-.46.37-.81.37s-.45-.08-.81-.37a4,4,0,0,0-2.69-1v3c.35,0,.45.08.81.37A4,4,0,0,0,45,29c.37-.29.46-.37.81-.37s.45.08.81.37a4,4,0,0,0,2.69,1V27c-.35,0-.45-.08-.81-.37A4,4,0,0,0,45.79,25.58Z"/>
        <path class="cls-1" d="M45.79,33a4,4,0,0,0-2.69,1c-.37.29-.46.37-.81.37s-.45-.08-.81-.37a4,4,0,0,0-2.69-1v3c.35,0,.45.08.81.37a4,4,0,0,0,5.37,0c.37-.29.46-.37.81-.37s.45.08.81.37a4,4,0,0,0,2.69,1v-3c-.35,0-.45-.08-.81-.37A4,4,0,0,0,45.79,33Z"/>
        <path class="cls-1" d="M34,15.88a5.62,5.62,0,1,0-11.24,0v16.4a8.16,8.16,0,0,0-2.63,6,8.25,8.25,0,0,0,16.5,0,8.16,8.16,0,0,0-2.63-6ZM28.4,43.54a5.23,5.23,0,0,1-3.2-9.38l.58-.45V15.88a2.62,2.62,0,1,1,5.24,0v1.59H29.19v3H31v3H29.19v3H31v7.27l.58.45a5.23,5.23,0,0,1-3.2,9.38Z"/>
        <path class="cls-1" d="M29.9,36V29.21h-3V36a2.92,2.92,0,1,0,3,0Z"/>
      </g>
    </g>
  </g>
</svg>
