<svg xmlns="http://www.w3.org/2000/svg" viewBox="0 0 44.63 50.85">
  <defs>
    <style>
      .cls-1 {
        fill: #bd3c8e;
      }
    </style>
  </defs>
  <title>Asset 2</title>
  <g id="Layer_2" data-name="Layer 2">
    <g id="Layer_1-2" data-name="Layer 1">
      <g>
        <path class="cls-1" d="M44.63,34.72a4.12,4.12,0,0,0-4.12-4.12H38.12a6.69,6.69,0,0,0,1.33-4v-1.5a6.76,6.76,0,0,0-6.63-6.74,4.36,4.36,0,0,0,.27-1.45,4.42,4.42,0,0,0-4.41-4.41H12.39A4.42,4.42,0,0,0,8,16.91a4.37,4.37,0,0,0,.68,2.32A4.45,4.45,0,0,0,8,25.86a4.45,4.45,0,0,0-.82,4.75h-3a4.1,4.1,0,0,0-.43,8.19l.77,6.88A5.59,5.59,0,0,0,9.8,50.85H35a5.42,5.42,0,0,0,5.19-5l.79-7A4.11,4.11,0,0,0,44.63,34.72Zm-7.84-9V26a4.35,4.35,0,0,1-4.34,4.34H11.3a1.5,1.5,0,1,1,0-3H32.2a1.5,1.5,0,0,0,0-3H11.3a1.5,1.5,0,1,1,0-3H32.45A4.35,4.35,0,0,1,36.79,25.69ZM12.39,15.5H28.68a1.41,1.41,0,1,1,0,2.82H12.39a1.41,1.41,0,1,1,0-2.82Zm24.79,30A2.44,2.44,0,0,1,35,47.85H9.8a2.61,2.61,0,0,1-2.37-2.51l-.73-6.5H37.92Zm3.34-9.66H4.12a1.12,1.12,0,1,1,0-2.23H40.51a1.12,1.12,0,0,1,0,2.23Z"/>
        <circle class="cls-1" cx="11.08" cy="43.34" r="1.5"/>
        <circle class="cls-1" cx="18.77" cy="43.34" r="1.5"/>
        <circle class="cls-1" cx="26.46" cy="43.34" r="1.5"/>
        <path class="cls-1" d="M34.49,13.1H37c0-.57.2-.8.7-1.32a4,4,0,0,0,0-6.1c-.5-.52-.7-.75-.7-1.32s.2-.8.7-1.32a4.07,4.07,0,0,0,1.4-3h-2.5c0,.57-.2.8-.7,1.32a4,4,0,0,0,0,6.1c.5.52.7.75.7,1.32s-.2.8-.7,1.32A4.07,4.07,0,0,0,34.49,13.1Z"/>
        <path class="cls-1" d="M28,9.44h2.5c0-.27.06-.34.41-.71a3.25,3.25,0,0,0,0-4.88c-.35-.37-.41-.44-.41-.71s.06-.34.41-.71A3.27,3.27,0,0,0,32,0h-2.5c0,.26-.06.34-.41.7a3.25,3.25,0,0,0,0,4.88c.35.37.41.44.41.71s-.06.34-.41.71A3.28,3.28,0,0,0,28,9.44Z"/>
      </g>
    </g>
  </g>
</svg>
