<svg xmlns="http://www.w3.org/2000/svg" viewBox="0 0 45.94 39.5">
  <defs>
    <style>
      .cls-1 {
        fill: #bd3c8e;
      }
    </style>
  </defs>
  <title>Asset 1</title>
  <g id="Layer_2" data-name="Layer 2">
    <g id="Layer_1-2" data-name="Layer 1">
      <g>
        <path class="cls-1" d="M38.28,0H7.67A7.67,7.67,0,0,0,0,7.67V21.23A7.67,7.67,0,0,0,7.67,28.9H38.28a7.67,7.67,0,0,0,7.67-7.67V7.67A7.67,7.67,0,0,0,38.28,0Zm5.17,21.23a5.17,5.17,0,0,1-5.17,5.17H7.67A5.17,5.17,0,0,1,2.5,21.23V7.67A5.17,5.17,0,0,1,7.67,2.5H38.28a5.17,5.17,0,0,1,5.17,5.17Z"/>
        <path class="cls-1" d="M16.49,2.95A11.5,11.5,0,1,0,28,14.45,11.51,11.51,0,0,0,16.49,2.95Zm5,4.05a4,4,0,0,0-1.33-.24,4.1,4.1,0,0,0-4.1,4.1,4,4,0,0,0,.2,1.2,3,3,0,0,0-1.11.35A5.67,5.67,0,0,1,15.73,8a4,4,0,0,0-4.29-1A9,9,0,0,1,21.53,7Zm-5.38,8a.49.49,0,1,1,.49.49A.49.49,0,0,1,16.15,15Zm-8.67-.57A8.93,8.93,0,0,1,8.86,9.68a4,4,0,0,0-.19,1.17,4.1,4.1,0,0,0,4.1,4.1,4.06,4.06,0,0,0,.9-.11c0,.06,0,.11,0,.17a3,3,0,0,0,.1.72,5.55,5.55,0,0,1-3.81-.65,4.08,4.08,0,0,0-1.27,3,4,4,0,0,0,.19,1.17A8.93,8.93,0,0,1,7.49,14.45Zm4,7.45a4,4,0,0,0,1.33.24,4.1,4.1,0,0,0,4.1-4.1s0,0,0-.06a3,3,0,0,0,1.11-.3c0,.12,0,.24,0,.36a5.71,5.71,0,0,1-.75,2.82,4,4,0,0,0,4.29,1,9,9,0,0,1-10.09,0Zm12.67-2.68A4,4,0,0,0,24.3,18a4.1,4.1,0,0,0-4.1-4.1,4.06,4.06,0,0,0-.76.08,3,3,0,0,0-.44-.81,5.57,5.57,0,0,1,4,.61,4.08,4.08,0,0,0,1.27-3,4,4,0,0,0-.19-1.17,8.92,8.92,0,0,1,0,9.53Z"/>
        <rect class="cls-1" x="28.78" y="6.09" width="11.73" height="2.5"/>
        <rect class="cls-1" x="30.09" y="10.67" width="10.42" height="2.5"/>
        <rect class="cls-1" x="31.39" y="14.89" width="9.11" height="2.5"/>
        <path class="cls-1" d="M10.52,32.2H8c0,.1,0,.1-.24.35a2.79,2.79,0,0,0,0,4.17C8,37,8,37,8,37.07s0,.11-.24.35a2.82,2.82,0,0,0-.93,2.08h2.5c0-.1,0-.11.24-.35a2.79,2.79,0,0,0,0-4.17c-.24-.25-.24-.25-.24-.35s0-.1.24-.35A2.81,2.81,0,0,0,10.52,32.2Z"/>
        <path class="cls-1" d="M17.6,32.2H15.1c0,.1,0,.1-.24.35a2.79,2.79,0,0,0,0,4.17c.24.25.24.25.24.35s0,.11-.24.35a2.82,2.82,0,0,0-.93,2.08h2.5c0-.1,0-.11.24-.35a2.79,2.79,0,0,0,0-4.17c-.24-.25-.24-.25-.24-.35s0-.1.24-.35A2.82,2.82,0,0,0,17.6,32.2Z"/>
        <path class="cls-1" d="M24.61,32.2h-2.5c0,.1,0,.1-.24.35a2.79,2.79,0,0,0,0,4.17c.24.25.24.25.24.35s0,.11-.24.35a2.82,2.82,0,0,0-.93,2.08h2.5c0-.1,0-.11.24-.35a2.79,2.79,0,0,0,0-4.17c-.24-.25-.24-.25-.24-.35s0-.1.24-.35A2.82,2.82,0,0,0,24.61,32.2Z"/>
      </g>
    </g>
  </g>
</svg>
