<svg xmlns="http://www.w3.org/2000/svg" viewBox="0 0 32.62 36.65">
  <defs>
    <style>
      .cls-1 {
        fill: #bd3c8e;
      }
    </style>
  </defs>
  <title>Asset 13</title>
  <g id="Layer_2" data-name="Layer 2">
    <g id="Layer_1-2" data-name="Layer 1">
      <path class="cls-1" d="M25.63,21.78A12.24,12.24,0,0,0,26.21,18c0-.2,0-.4,0-.59a3,3,0,0,0,2.3-2.13l.59-2.15a2.83,2.83,0,0,0-.31-2.23,3.24,3.24,0,0,0-2.06-1.49l-.21,0a5.52,5.52,0,0,0,.05-.71V5.52A5.53,5.53,0,0,0,21,0H11.59A5.53,5.53,0,0,0,6.07,5.52V8.71a5.53,5.53,0,0,0,.05.71l-.21,0a3.25,3.25,0,0,0-2.06,1.49,2.82,2.82,0,0,0-.31,2.21l.59,2.17a3,3,0,0,0,2.3,2.12c0,.2,0,.4,0,.6A12.24,12.24,0,0,0,7,21.78,16.3,16.3,0,0,0,0,35.15v1.5H32.62v-1.5A16.3,16.3,0,0,0,25.63,21.78ZM9.07,5.52A2.52,2.52,0,0,1,11.59,3H21a2.52,2.52,0,0,1,2.52,2.52V8.71s0,.1,0,.14c-.7-.11-1.4-.22-2.11-.3a46.32,46.32,0,0,0-10.24,0c-.71.08-1.41.19-2.11.3,0,0,0-.09,0-.14ZM7,14.36l-.52-1.92a.3.3,0,0,1,.13-.06l.75-.15L8,12.1a42.76,42.76,0,0,1,4.33-.63,43.31,43.31,0,0,1,8,0,42.74,42.74,0,0,1,4.33.63l.62.13.75.15a.3.3,0,0,1,.13.06l-.52,1.92,0,.14a.08.08,0,0,1-.07,0c-.95-.22-1.91-.39-2.87-.54l-.42-.07a41.13,41.13,0,0,0-11.86,0L10,14c-1,.15-2,.32-2.93.55Zm12.23,8V16.6a37.67,37.67,0,0,1,3.95.5c0,.31.05.62.05.94a9.39,9.39,0,0,1-.27,2.22A8.68,8.68,0,0,1,21.75,23a6.59,6.59,0,0,1-5.44,3.14A6.59,6.59,0,0,1,10.87,23a8.68,8.68,0,0,1-1.19-2.75A9.39,9.39,0,0,1,9.41,18c0-.32,0-.63.05-.94a37.87,37.87,0,0,1,6.76-.62v2.9H14.55v3ZM3.08,33.65a13.31,13.31,0,0,1,5.21-9.11,9.61,9.61,0,0,0,8,4.62,9.61,9.61,0,0,0,8-4.62,13.31,13.31,0,0,1,5.21,9.11Z"/>
    </g>
  </g>
</svg>
