<svg xmlns="http://www.w3.org/2000/svg" viewBox="0 0 36.29 33.61">
  <defs>
    <style>
      .cls-1 {
        fill: #bd3c8e;
      }
    </style>
  </defs>
  <title>Asset 10</title>
  <g id="Layer_2" data-name="Layer 2">
    <g id="Layer_1-2" data-name="Layer 1">
      <g>
        <path class="cls-1" d="M2.5,10.31H0A3.48,3.48,0,0,1,1.17,7.73c.38-.39.48-.51.48-.85s-.1-.46-.48-.85A3.48,3.48,0,0,1,0,3.43,3.48,3.48,0,0,1,1.17.85c.38-.39.48-.51.48-.85h2.5A3.48,3.48,0,0,1,3,2.58c-.38.39-.48.51-.48.85s.1.46.48.85A3.43,3.43,0,0,1,3,9.46C2.6,9.85,2.5,10,2.5,10.31Z"/>
        <path class="cls-1" d="M34.77,12c-2.33-2.87-6.16-2.9-9.06-.64a16.49,16.49,0,0,0-2.84-.9V7.92h-7.5v2.55a15.7,15.7,0,0,0-6.62,3.16L6.12,11.92c-.08-.05-.17-.08-.25-.13L6.38,11C5,10.12,2.79,11,1.43,13.11s-1.35,4.46,0,5.37l.36-.54a3.14,3.14,0,0,0,.27.22l2.59,1.68a10.54,10.54,0,0,0-.35,2.67V33.61H33.93V22.49c0-.34,0-.68-.06-1A6.8,6.8,0,0,0,34.77,12ZM3.45,16a.57.57,0,0,1-.22-.26l1.23-1.86a.61.61,0,0,1,.3.09L7,15.44a12.05,12.05,0,0,0-1.34,2Zm28,15.06H6.83V28.86H25.58v-3H6.83V22.49a8.13,8.13,0,0,1,.25-2,9.52,9.52,0,0,1,3.27-5,13.81,13.81,0,0,1,8.78-3c6.78,0,12.3,4.46,12.3,9.95Zm1.55-13a12.77,12.77,0,0,0-4.38-5.2,3.17,3.17,0,0,1,4,.86A4,4,0,0,1,33,18.14Z"/>
      </g>
    </g>
  </g>
</svg>
