<svg xmlns="http://www.w3.org/2000/svg" viewBox="0 0 56.79 56.79"><defs><style>.cls-1{fill:none;stroke:#bd3c8e;stroke-miterlimit:10;stroke-width:3px;}</style></defs><title>Asset 8</title><g id="Layer_2" data-name="Layer 2"><g id="Layer_1-2" data-name="Layer 1"><circle class="cls-1" cx="28.4" cy="28.4" r="26.9"/><path class="cls-1" d="M42.92,14.35h0a5.43,5.43,0,0,0-8.29.56l-6.56,8.95c-.05.07-.09.15-.14.22l.23,0a4.31,4.31,0,0,1,2.75,1,3.48,3.48,0,0,1,.46-.11l9.36-1.44L42,22.62A5.43,5.43,0,0,0,42.92,14.35Z"/><path class="cls-1" d="M42.34,23.26,31.37,25a3.48,3.48,0,0,0-.46.11,4.32,4.32,0,0,1,1.54,2.71,3.5,3.5,0,0,1,.48.29l7.64,5.6,1.56.3a5.43,5.43,0,1,0,.2-10.7Z"/><path class="cls-1" d="M41.88,34.62l-8.95-6.56a3.5,3.5,0,0,0-.48-.29,4.05,4.05,0,0,1-.73,3.13,3.49,3.49,0,0,1,.12.47l1.44,9.36L34.18,42a5.43,5.43,0,0,0,8.27.87h0A5.43,5.43,0,0,0,41.88,34.62Z"/><path class="cls-1" d="M33.53,42.34l-1.69-11a3.49,3.49,0,0,0-.12-.47,4.34,4.34,0,0,1-2.85,1.79c0,.08-.09.16-.14.24l-5.6,7.64-.3,1.56a5.43,5.43,0,1,0,10.7.2Z"/><path class="cls-1" d="M25.49,31.82l-.06,0-9.36,1.44-1.32.89a5.43,5.43,0,1,0,7.43,7.71l6.56-8.95c.06-.08.1-.16.14-.24a4.11,4.11,0,0,1-3.39-.87Z"/><path class="cls-1" d="M23.84,28.71l-7.62-5.58-1.56-.3a5.43,5.43,0,1,0-.2,10.7l11-1.69.06,0A4.32,4.32,0,0,1,23.84,28.71Z"/><path class="cls-1" d="M25,25.48v-.05l-1.44-9.36-.89-1.32a5.43,5.43,0,1,0-7.71,7.43l8.93,6.54c0-.1,0-.2,0-.3A4.32,4.32,0,0,1,25,25.48Z"/><path class="cls-1" d="M28.73,8.2a5.43,5.43,0,0,0-5.47,6.26l1.69,11v.05a4.32,4.32,0,0,1,3-1.39c0-.07.08-.15.14-.22l5.6-7.64.3-1.56A5.43,5.43,0,0,0,28.73,8.2Z"/></g></g></svg>