<svg xmlns="http://www.w3.org/2000/svg" viewBox="0 0 56.79 56.79"><defs><style>.cls-1{fill:none;stroke:#bd3c8e;stroke-miterlimit:10;stroke-width:3px;}</style></defs><title>Asset 6</title><g id="Layer_2" data-name="Layer 2"><g id="Layer_1-2" data-name="Layer 1"><polygon class="cls-1" points="26.83 12.16 36.39 13.38 30.21 20.77 28.99 30.32 21.6 24.14 12.04 22.92 18.22 15.53 19.44 5.97 26.83 12.16"/><circle class="cls-1" cx="28.4" cy="28.4" r="26.9"/><path class="cls-1" d="M55.21,26.3C49.79,24,45.38,25.31,42.4,30"/><path class="cls-1" d="M22,25.18a12.31,12.31,0,0,0-.87,12.74"/><path class="cls-1" d="M46,48.06,42.4,30a11.62,11.62,0,0,0-11.07-9.27"/><path class="cls-1" d="M38.17,53.45l-17-15.53a12.57,12.57,0,0,0-17.62.68"/><line class="cls-1" x1="6.25" y1="43.66" x2="7.77" y2="40.06"/><line class="cls-1" x1="10.2" y1="48.2" x2="11.55" y2="44.98"/><line class="cls-1" x1="14.65" y1="51.52" x2="15.9" y2="48.57"/><line class="cls-1" x1="19.55" y1="53.8" x2="20.87" y2="50.66"/><line class="cls-1" x1="24.87" y1="55.06" x2="26.47" y2="51.27"/><line class="cls-1" x1="30.63" y1="55.29" x2="32.02" y2="52"/></g></g></svg>