<svg xmlns="http://www.w3.org/2000/svg" viewBox="0 0 56.79 56.79"><defs><style>.cls-1{fill:none;stroke:#bd3c8e;stroke-miterlimit:10;stroke-width:3px;}</style></defs><title>Asset 2</title><g id="Layer_2" data-name="Layer 2"><g id="Layer_1-2" data-name="Layer 1"><circle class="cls-1" cx="28.4" cy="28.4" r="26.9"/><path class="cls-1" d="M18.44,36.59H13.11a3.34,3.34,0,0,1-3.34-3.34V25.38A3.34,3.34,0,0,1,13.11,22h5.33"/><rect class="cls-1" x="19.01" y="20.1" width="4.25" height="18.25" rx="2.13" ry="2.13"/><path class="cls-1" d="M38.35,21.86h5.33A3.34,3.34,0,0,1,47,25.2v7.86a3.34,3.34,0,0,1-3.34,3.34H38.35"/><rect class="cls-1" x="33.53" y="20.1" width="4.25" height="18.25" rx="2.13" ry="2.13" transform="translate(71.3 58.44) rotate(180)"/><line class="cls-1" x1="27.56" y1="24.65" x2="33.35" y2="24.65"/><line class="cls-1" x1="1.51" y1="29.13" x2="8.75" y2="29.13"/><line class="cls-1" x1="47.03" y1="29.13" x2="54.27" y2="29.13"/><line class="cls-1" x1="27.56" y1="33.61" x2="33.35" y2="33.61"/></g></g></svg>