<svg xmlns="http://www.w3.org/2000/svg" viewBox="0 0 56.79 56.79"><defs><style>.cls-1{fill:none;stroke:#bd3c8e;stroke-miterlimit:10;stroke-width:3px;}</style></defs><title>Asset 1</title><g id="Layer_2" data-name="Layer 2"><g id="Layer_1-2" data-name="Layer 1"><path class="cls-1" d="M19.43,47.06a7.51,7.51,0,0,1,9.06,7.08h0"/><path class="cls-1" d="M6.71,44.31l4.41-6.26a6.32,6.32,0,0,1,9.63-.83h0a6.32,6.32,0,0,1-.83,9.63l-6.28,4.42"/><path class="cls-1" d="M7.95,46.9,10,37.05a6.32,6.32,0,0,0-6-7.62H1.52"/><circle class="cls-1" cx="28.4" cy="28.4" r="26.9"/><line class="cls-1" x1="40.74" y1="34.57" x2="40.74" y2="29"/><line class="cls-1" x1="21.74" y1="15.56" x2="27.31" y2="15.56"/><line class="cls-1" x1="50.25" y1="25.07" x2="54.18" y2="29"/><line class="cls-1" x1="27.31" y1="2.13" x2="31.24" y2="6.06"/><circle class="cls-1" cx="40.74" cy="15.56" r="8.26"/><line class="cls-1" x1="23.68" y1="33.31" x2="30.93" y2="26.06"/><line class="cls-1" x1="30.93" y1="26.06" x2="24.26" y2="26.06"/><line class="cls-1" x1="30.93" y1="24.56" x2="30.93" y2="32.66"/></g></g></svg>