<svg xmlns="http://www.w3.org/2000/svg" viewBox="0 0 56.79 56.79"><defs><style>.cls-1,.cls-2{fill:none;stroke:#bd3c8e;stroke-miterlimit:10;stroke-width:3px;}.cls-2{stroke-linecap:round;}</style></defs><title>Asset 7</title><g id="Layer_2" data-name="Layer 2"><g id="Layer_1-2" data-name="Layer 1"><circle class="cls-1" cx="28.4" cy="28.4" r="26.9"/><rect class="cls-1" x="21.96" y="10.48" width="22.54" height="36.01" rx="4.76" ry="4.76" transform="translate(-0.21 0.25) rotate(-0.43)"/><line class="cls-1" x1="22.02" y1="37.08" x2="43.96" y2="36.92"/><line class="cls-1" x1="26.65" y1="30.49" x2="26.65" y2="25.3"/><line class="cls-1" x1="31.15" y1="30.49" x2="31.15" y2="18.36"/><line class="cls-1" x1="35.65" y1="30.49" x2="35.65" y2="24.36"/><line class="cls-1" x1="40.15" y1="30.49" x2="40.15" y2="27.23"/><path class="cls-1" d="M5.85,20.83a11.32,11.32,0,0,1,3.33,8,11.32,11.32,0,0,1-3.33,8"/><path class="cls-1" d="M10.13,41.18a17.36,17.36,0,0,0,5.1-12.32,17.36,17.36,0,0,0-5.1-12.32"/><path class="cls-1" d="M5.85,36.89a11.32,11.32,0,0,0,3.33-8,11.32,11.32,0,0,0-3.33-8"/><path class="cls-1" d="M1.5,25.18A5.19,5.19,0,0,1,3,28.86,5.19,5.19,0,0,1,1.5,32.54"/><path class="cls-1" d="M1.5,32.54A5.19,5.19,0,0,0,3,28.86,5.19,5.19,0,0,0,1.5,25.18"/><line class="cls-2" x1="32.74" y1="41.62" x2="34.5" y2="41.62"/></g></g></svg>