<svg xmlns="http://www.w3.org/2000/svg" viewBox="0 0 56.79 56.79"><defs><style>.cls-1{fill:none;stroke:#bd3c8e;stroke-miterlimit:10;stroke-width:3px;}</style></defs><title>Asset 3</title><g id="Layer_2" data-name="Layer 2"><g id="Layer_1-2" data-name="Layer 1"><circle class="cls-1" cx="28.4" cy="28.4" r="26.9"/><path class="cls-1" d="M32.52,33V15.88a4.12,4.12,0,0,0-8.24,0V33a6.75,6.75,0,1,0,8.24,0Z"/><circle class="cls-1" cx="28.4" cy="38.48" r="1.42"/><line class="cls-1" x1="28.4" y1="29.21" x2="28.4" y2="38.48"/><line class="cls-1" x1="29.19" y1="24.93" x2="31.36" y2="24.93"/><line class="cls-1" x1="29.19" y1="18.96" x2="31.36" y2="18.96"/><path class="cls-1" d="M7.46,19.67c1.75,0,1.75,1.4,3.5,1.4s1.75-1.4,3.5-1.4,1.75,1.4,3.5,1.4"/><path class="cls-1" d="M7.46,27.08c1.75,0,1.75,1.4,3.5,1.4s1.75-1.4,3.5-1.4,1.75,1.4,3.5,1.4"/><path class="cls-1" d="M7.46,34.5c1.75,0,1.75,1.4,3.5,1.4s1.75-1.4,3.5-1.4,1.75,1.4,3.5,1.4"/><path class="cls-1" d="M38.79,19.67c1.75,0,1.75,1.4,3.5,1.4s1.75-1.4,3.5-1.4,1.75,1.4,3.5,1.4"/><path class="cls-1" d="M38.79,27.08c1.75,0,1.75,1.4,3.5,1.4s1.75-1.4,3.5-1.4,1.75,1.4,3.5,1.4"/><path class="cls-1" d="M38.79,34.5c1.75,0,1.75,1.4,3.5,1.4s1.75-1.4,3.5-1.4,1.75,1.4,3.5,1.4"/></g></g></svg>